<?xml version="1.0" encoding="UTF-8"?>
<svg id="Layer_2" data-name="Layer 2" xmlns="http://www.w3.org/2000/svg" viewBox="0 0 324 259.6">
  <defs>
    <style>
      .cls-1 {
        fill: #343434;
      }

      .cls-2 {
        fill: #6eff9b;
      }

      .cls-3 {
        fill: #353534;
      }

      .cls-4 {
        fill: #7c6d33;
      }

      .cls-5 {
        fill: #363636;
      }

      .cls-6 {
        fill: #39646d;
      }

      .cls-7 {
        fill: #fffadb;
      }

      .cls-8 {
        fill: #3b666f;
      }

      .cls-9 {
        fill: #ff8486;
      }

      .cls-10 {
        fill: #333;
      }

      .cls-11 {
        fill: #ff5fb4;
      }

      .cls-12 {
        fill: #ffe85c;
      }

      .cls-13 {
        fill: #343433;
      }

      .cls-14 {
        fill: #c4a73b;
      }

      .cls-15 {
        fill: #cbc49b;
      }

      .cls-16 {
        fill: none;
        stroke: #333;
        stroke-width: 8px;
      }

      .cls-17 {
        fill: #52e37e;
      }

      .cls-18 {
        fill: #4ca0b4;
      }

      .cls-19 {
        fill: #807d67;
      }

      .cls-20 {
        fill: #ff474a;
      }

      .cls-21 {
        fill: #dbffe6;
      }

      .cls-22 {
        fill: #c7ccfb;
      }

      .cls-23 {
        fill: #f4d762;
      }

      .cls-24 {
        fill: #edfff2;
      }

      .cls-25 {
        fill: #2fd57b;
      }

      .cls-26 {
        fill: #5cc4da;
      }

      .cls-27 {
        fill: #ffd6d7;
      }
    </style>
  </defs>
  <g id="Layer_1-2" data-name="Layer 1">
    <g>
      <g>
        <ellipse class="cls-22" cx="111.5" cy="224.6" rx="111.5" ry="35"/>
        <ellipse class="cls-22" cx="280.5" cy="226.6" rx="43.5" ry="14"/>
      </g>
      <g id="scissors">
        <path class="cls-10" d="m247.7,134.8c.3,1.7.6,3.4.9,5.2,1.4,9.9-2.9,16.9-10.9,22.1-13.2,8.5-35.4,7.2-47.4-11.1-5.8-8.9-8.7-18.8-9.7-29.3-.9-10.3,0-20.4,3.6-30.2.6-1.6,1.1-3.4,2.1-4.8,2-2.7,1.5-5.1.2-8-7-15.2-9.1-31.2-8-47.7.7-9.4,2.3-18.7,5.1-27.7,1.1-3.6,1.7-3.9,5.2-2.6,26.1,9.5,44.2,27.4,55.2,52.7.7,1.7,1.6,2.3,3.4,2.6,9.5,1.6,17.8,6,25.3,11.9,13.2,10.2,23.3,22.8,28.6,38.8,3.6,11,3.6,21.8-2.7,32-4,6.5-9.6,11.3-16.7,14.1-9.1,3.6-16.8.7-23.6-5.5-3.8-3.5-7-7.6-9.8-12-.2-.4-.5-.6-.8-.5h0Z"/>
        <path class="cls-6" d="m247.7,134.8c-.4-.3-.8-1-.3-1.1.9-.1,1.2.7,1.3,1.5-.4,0-.7-.2-1-.4h0Z"/>
        <path class="cls-17" d="m223,83.4c2.7,10.6,8.2,19.9,12.6,29.7,4.3,9.5,7.8,19.5,8.8,30,.4,4.1-1.2,7.6-3.9,10.7-11.5,12.8-32.9,11.6-44.2-2.4-5.9-7.3-9.1-15.8-10.6-25-2.1-12.8-1.2-25.4,4.3-37.4.9-2,2.1-2.6,4.2-2.5,6.9.4,13.8.4,20.7-.7,2.7-.3,5.4-1.2,8.1-2.4h0Z"/>
        <path class="cls-25" d="m282.7,83.8c.3.3.6.7,1,1.1.5.7,1,1.3,1.6,1.9,6.1,7.3,10.4,15.6,12.8,24.9.2.7.4,1.4.5,2.2.9,4.5,1.1,9,0,13.5-2.4,9.6-8.3,16.4-16.9,20.8-6,3.1-11.8,2.2-17.2-1.6-5.6-4.1-9.8-9.5-13.3-15.4-7.5-12.6-14.9-25.2-20.6-38.7-1.6-3.9-2.8-7.8-3.7-11.9-.2-.8-.3-1.6.2-2.4,4.1-5.9,8.4-11.6,14-16.1,2.1-1.7,4.2-2,6.8-1.4,11.3,2.5,20.5,8.9,28.8,16.6,1.4,1.3,2.9,2.5,3.9,4.2.3.3.3.7,0,1-1.4.2-2.1-.9-2.8-1.7-4.7-4.7-10.1-8.5-16.1-11.3-4.1-1.9-8.5-2.8-13.1-3.1-.8-.1-1.7.2-2.4.4-2.4.8-4.3,2.9-4.2,4.8.1,1.7,2,3.4,4.6,4,3,.7,6.1.9,9.1,1.8,10.2,2.9,18.9,8.3,25.7,16.4,5.3,6.2,7.8,13.7,8.8,21.7.2,1.4.4,2.8.7,4.2.2.9.1,2.3,1.5,2.2,1.1-.1,1-1.4,1-2.3.1-3.8,0-7.5-.8-11.2-1.9-8.7-5.6-16.5-11.3-23.4-.5-.6-1.2-1.2-1-2.2,1.6-1.1,1.7.5,2.4,1h0Z"/>
        <path class="cls-21" d="m186.9,10.4c1.9,5.6,3.8,11.3,5.6,16.9,3.5,10.7,7.2,21.3,10.5,32,1.3,4.3,3.6,7.7,6.8,10.8,2.8,2.7,5.4,5.6,8.2,8.4,1.2,1.2,1.1,1.9-.6,2.4-3.1.9-6.2,1.2-9.3,1.4-4.3.2-8.7,0-13,.1-1.5,0-2.2-.6-2.9-1.8-7.8-15.2-10.3-31.5-9.2-48.4.4-6.4,1.2-12.7,2.7-19,.2-.9.4-1.8.7-2.6.1-.2.3-.2.5-.2h0Z"/>
        <path class="cls-24" d="m214.6,68.4c-5.4-3.7-7-9.5-8.9-15.3-4.7-14.6-9.6-29.2-14.4-43.8-.3-.9-.6-1.7-1-3.3,14.1,5.8,25.7,13.9,35,25.3,4.7,7.3,5.1,15.2,3,23.4-1.4,5.3-4.1,9.8-8.9,12.7-1.6.8-3,1.8-4.8,1h0Z"/>
        <path class="cls-21" d="m214.6,68.4c5.8-1.1,9.4-4.9,11.5-9.9,3.8-9,3.4-17.9-.9-26.7-.1-.1,0-.3,0-.5,5.7,6.3,10,13.4,13.5,21.1q1.9,4.2-1.5,7c-5.3,4.4-9.3,9.9-13.2,15.5-1.2,1.7-1.9,1.7-3.1.2-2.1-2.3-4.2-4.5-6.3-6.7h0Z"/>
        <path class="cls-8" d="m298.6,127.3c.5-4.5.5-9,0-13.5,1.5,4.5,1.5,9,0,13.5Z"/>
        <path class="cls-26" d="m280.6,82.3v-1c.9.7,1.8,1.3,2,2.5-.6-.5-1.3-1-2-1.5h0Z"/>
        <path class="cls-26" d="m285.2,86.8c-.9-.3-1.5-.9-1.6-1.9.9.3,1.3,1.1,1.6,1.9Z"/>
        <path class="cls-10" d="m218.6,148.4c-6.9-.1-11.4-3.5-15.3-8.2-9.1-11.2-11-30.2-4.2-42.9,2.3-4.3,5.5-7.5,10.8-7.6,3.4-.1,5.9,1.4,7.6,4.3,5.2,9.1,9.1,18.8,13,28.6,1.5,3.7,2.7,7.5,3.8,11.4.7,2.7.3,5.2-1.7,7.4-3.8,4.3-8.5,6.9-14,7h0Z"/>
        <path class="cls-10" d="m257.6,81.8c14.2,4.9,24.1,14.2,28.2,29,1.7,6.3,1.8,12.6-2.8,18-4.5,5.3-10.4,7.2-17.2,6.4-1.7-.2-2.8-1.3-3.8-2.6-4.6-6.1-8-12.9-11.5-19.6-3.1-6-6.1-12.1-8.4-18.4-2.3-6.2-.5-10.2,5.5-12.9,3.4-1.1,6.7-1,10,.1h0Z"/>
        <path class="cls-2" d="m280.6,82.3c2.2,3.4,4.9,6.4,6.8,10,4.7,8.7,7.4,17.9,6.6,27.9-.1,1.1-.4,2.3-1.7,2.5-1.5.2-1.7-1.2-1.9-2.2-.5-2.5-1-5-1.3-7.6-2.2-14.2-10.4-23.9-22.6-30.7-5.9-3.3-12.3-5.3-19.1-6-3.8-.4-6.8-3.1-6.3-5.5.6-3.3,4.6-5.4,8.3-5.1,12,.9,21.2,7.1,29.4,15.2.7.6,1.2,1.1,1.8,1.5h0Z"/>
        <path class="cls-18" d="m257.6,81.8c-3.3-.6-6.7-.8-10-.1,3.4-1.5,6.7-1.4,10,.1Z"/>
        <path class="cls-1" d="m209.7,45.4c-3.1,0-4.9-1.6-6.1-4.8-1-2.6.2-4.3,2.2-5.8.2-.1.4-.3.6-.4q3.5-2.4,5.8,1.2c.8,1.2,1.5,2.4,2.2,3.6,1.7,2.8,1.3,4.1-1.6,5.5-1,.4-2.1.7-3.1.7h0Z"/>
        <path class="cls-5" d="m209.7,22.3c1.8,0,3.3.2,3.7,1.8.4,1.6-.9,2.6-2.2,3.2-1.9.9-3.8,1.2-5.6,0-.9-.6-1-1.5-.5-2.4,1.1-1.9,2.9-2.5,4.6-2.6h0Z"/>
        <path class="cls-5" d="m219.5,45.9c0-2.9,2.4-5.7,4.6-5.7,1.7.1,2.1,1.1,2,2.5-.1,2.5-2.6,5.5-4.7,5.4-1.6,0-1.9-1.2-1.9-2.2Z"/>
        <path class="cls-11" d="m223.3,56.3c-2,0-4.6-2.4-4.5-4.2.1-1.4.7-2.6,2.4-2.7,1.9-.1,4.4,2.6,4.3,4.5-.1,1.5-1.1,2.2-2.2,2.4h0Z"/>
        <path class="cls-11" d="m198.6,18.4c-.1-1.3.1-2.7,2-2.9,1.6-.2,3.1,1.8,3.1,3.8,0,1.5-.2,2.9-2.1,3-1.9.2-3-1.2-3-3.9h0Z"/>
        <path class="cls-17" d="m199.6,113.6c-.1-3.9,1-9.1,3.4-14,.9-1.8,2.1-3.4,3.8-4.5,3-1.9,5.6-1.3,7.3,1.8,3.4,6.2,6.3,12.6,9,19.2,2.5,6.1,5,12.1,6.8,18.5.5,1.9,0,3.2-1.2,4.5-6.3,6.7-15.1,6.4-21-.7-5.7-6.8-8.1-14.6-8.1-24.8h0Z"/>
        <path class="cls-17" d="m268,131c-1.3.2-2.3-.7-3.1-2-5.7-8.5-10.3-17.7-14.7-26.9-1.5-3.2-2.9-6.5-4.2-9.9-1-2.7-.2-4.4,2.3-5.8,2.4-1.3,4.9-1.1,7.5-.5,13,3.1,24.8,16.4,26.3,29.7,1.3,10.8-6.6,15.1-14.1,15.4h0Z"/>
        <path class="cls-10" d="m279.1,193.3c-.9,2,0,4.4,2,5.3s4.4,0,5.3-2l-7.3-3.3Zm-19.8-25.9l1.3-3.8-1.3,3.8Zm4.4-19.3l-8.4,15.9,7.1,3.7,8.4-15.9-7.1-3.7Zm-5.7,23.1c5.2,1.8,12.1,5.1,16.8,9.4,2.3,2.1,3.9,4.2,4.7,6.3.7,2,.7,4.1-.4,6.5l7.3,3.3c2-4.3,2-8.6.6-12.5-1.3-3.8-3.9-7-6.8-9.6-5.8-5.2-13.7-9-19.5-11l-2.7,7.6Zm-2.8-7.1c-1.5,2.8-.1,6.1,2.8,7.1l2.6-7.6c1.7.6,2.5,2.6,1.7,4.2l-7.1-3.7Z"/>
      </g>
      <g id="paper">
        <path class="cls-10" d="m155.9,91.8c-4.6,25.3-4.9,50.5,2.9,75.3.7,2.2-.1,3.5-1.8,4.6-3.6,2.1-7.7,2.6-11.7,3.1-9.5,1-19,.5-28.4-.1-15.5-1-31-2.7-46.4-4.8-6.1-.8-12.2-1.7-18.3-2.6-6.3-.9-9-3.8-10.2-10.1-2.2-12.1-2.2-24.3-1.3-36.6,1.5-21.3,5.1-42.2,10.9-62.8,2.2-7.7,4.9-15.2,8.2-22.5,4.8-10.3,12.9-15.8,24.1-17.6,10.7-1.6,21.4-1.3,32.1-.2,19.7,2,38.9,6,58,10.9,3,.8,3.4,1.8,2,4.6-8,15.9-14.3,32.4-18.2,49.8-.7,3-1.2,6-1.9,9h0Z"/>
        <path class="cls-14" d="m155.9,91.8c.3-3.1.8-6.1,1.9-9.1-.2,3.2-.6,6.2-1.9,9.1Z"/>
        <path class="cls-7" d="m100.9,40.2c10.5-5.1,21.8-7.5,33.3-8.8,11.3-1.2,22.6-1,33.8.5q3.1.4,1.8,3.2c-7.6,15.7-13.3,32.1-17.1,49.1-.8,2.1-1,4.4-1.4,6.6-2,11.6-3.3,23.2-3.2,34.9.1,13.7,1.5,27.2,5.5,40.3.5,1.8,0,2.4-1.6,2.8-5.1,1.4-10.3,1.6-15.5,1.7-2.6.1-5.2,0-7.7,0-1.2-.4-2.5-.1-3.8-.2-.7-.3-1.5-.2-2.3-.3-.9-.3-1.9-.2-2.8-.2-8-1.7-15.9-3.3-23.9-5-9.4-2-18.8-4.3-28.4-5.6-1.2-.2-2.3-.5-3.4-.7-7.2-1-11.1-5.5-12.8-12.2-.8-3.2-1.2-6.5-1.4-9.9-.4-10-.8-19.9-1-29.9-.1-8.9.5-17.7,1.7-26.5,1.3-8.8,3.8-17.3,6.4-25.8,2.1-6.9,4.5-13.7,8.1-20,1.2-2.2,2.6-4.3,4.8-5.6,2.3-1.1,4.2,0,6.1,1,2.2,1.2,4.1,2.8,5.6,4.8,2.5,3.5,4.7,7.2,6.5,11.2.9,2.1,1.4,2.2,3.1.7,3.1-2.2,6.2-4.3,9.6-6.1h0Z"/>
        <path class="cls-12" d="m50.8,80.2c-.3,7.1-.6,14.2-.9,21.4-.4,9.6.4,19.1.6,28.7.1,5.9.2,11.9,2.1,17.7,1.8,5.5,5.1,9,11,9.9,17.5,2.7,34.8,7.1,52.2,10.4,1.5.3,2.9,1.3,4.6,1,.8.6,1.8,0,2.6.5.7.1,1.4-.1,2,.5-2.7.5-5.4-.1-8-.1-3.4-.1-6.9-.7-10.3-.6-.4,0-.8,0-1.2-.2-5.2-.5-10.3-1-15.5-1.5-4.3-.5-8.7-.9-13-1.5-8.2-1.2-16.3-2.3-24.5-3.5-3.5-.5-5-1.8-5.8-5.2-2.2-10.1-2.5-20.3-2-30.5.7-14.4,2.5-28.6,5.3-42.8.1-1.5.1-2.9.8-4.2Z"/>
        <path class="cls-12" d="m81.2,23c20.5-3.8,40.6-.6,60.6,2.7l.1.6c-1.4.1-2.8.3-4.2.4-1.5.1-3,.3-4.5.5-13.4,1.3-26.1,4.9-38.2,10.7-1.1.5-1.8.8-2.5-.7-2.6-5.6-6-10.6-11.3-14.2h0Z"/>
        <path class="cls-12" d="m100.9,40.2c-3.5,2.6-7,5.2-10.5,7.9-1.4,1.1-1.7.1-2.1-.8-2-4.5-4.2-8.8-7.2-12.7-2.8-3.6-6.3-5.7-11-5.9,3.8-3.1,7.6-3,11.2.2,3.7,3.4,6.1,7.6,8.1,12.2,1.3,3,2.2,3.3,5.2,1.9,2-.9,4-2.2,6.3-2.8h0Z"/>
        <path class="cls-4" d="m105.4,169.3c6.5.3,13,.6,19.5.9,1.3.2,2.7-.1,4,.4-7.9.4-15.8,0-23.5-1.3Z"/>
        <path class="cls-4" d="m76.9,166.3c4.4.1,8.7.6,13,1.5-4.4.1-8.8-.5-13-1.5Z"/>
        <path class="cls-15" d="m151.4,90.9c-.1-2.3.1-4.5,1.4-6.6-.3,2.2-.7,4.4-1.4,6.6Z"/>
        <path class="cls-10" d="m114.4,136.2c-12.9-1.2-26-2.5-39.2-3.7-5.5-.5-10.9-1.1-16.4-1.6-1.6-.1-3.4-.3-3.2-2.5.2-2.2,1.9-2.1,3.6-1.9,18.2,1.8,36.4,3.5,54.6,5.2.4,0,.8.1,1.2.1,1.6.2,3.2.6,2.9,2.6-.2,1.8-1.7,2.1-3.5,1.8h0Z"/>
        <path class="cls-10" d="m111.8,121.4c-11.9-1.1-23.6-2.2-35.2-3.3-6.2-.6-12.4-1.2-18.6-1.8-.7-.1-1.5-.1-2.2-.3-1.2-.3-1.9-1.1-1.7-2.4.2-1.2.9-2,2.2-1.9,3,.2,6,.4,8.9.7,15.1,1.4,30.3,2.8,45.4,4.3.7.1,1.5.2,2.2.3,1.4.1,2.4.8,2.3,2.4-.1,1.6-1.2,2-2.6,2h-.7Z"/>
        <path class="cls-10" d="m70.4,95.8c13.5,1.2,27,2.4,40.5,3.6.5,0,1,.1,1.5.2,1.4.2,2.3.9,2.2,2.5-.1,1.7-1.3,2-2.6,1.9-4.9-.4-9.8-.8-14.7-1.2-13-1.2-26-2.4-39-3.5-1.2-.1-2.3-.3-2.8-1.6-.5-1.4.4-2.1,1.4-2.8,4.5,0,9,.6,13.5.9h0Z"/>
        <path class="cls-13" d="m101.7,152c-11.1-1.3-22.3-2.6-33.6-4-3-.3-6-.6-8.9-1-1.5-.2-2.6-.8-2.4-2.6.2-1.7,1.4-2.1,2.9-1.9,14.2,1.7,28.4,3.4,42.6,5.1,1.7.2,2.8.8,2.5,2.6-.1,1.9-1.5,2-3.1,1.8Z"/>
        <path class="cls-13" d="m118.6,53.8c3.3,1.7,6.1,3.1,8.9,4.5.9.5,1.8.9,2.6,1.4,1.2.7,1.5,1.8.9,3-.6,1.3-1.8,1.5-3,.9-5.1-2.5-10.3-5.1-15.4-7.8-1.8-1-1.8-2.9.1-3.9,4.4-2.5,8.9-4.9,13.4-7.3,1.2-.6,2.5-.6,3.2.8.6,1.3.1,2.4-1.2,3.1-2.9,1.6-6,3.3-9.5,5.3h0Z"/>
        <path class="cls-1" d="m67.1,62.8c-1.1,0-2-.4-2.3-1.5-.3-1.3.3-2.3,1.5-2.8,3.1-1.2,6.2-2.5,9.3-3.5,2.1-.7,1.9-1.3.3-2.4-1.5-1.1-3-2.4-4.4-3.6-1.1-.9-1.4-2.1-.4-3.3.9-1.1,2.1-1,3.1-.2,3.2,2.5,6.4,5.1,9.5,7.7,1.3,1.2,1.1,3-.5,3.7-5.2,2.1-10.4,4-15.6,5.9-.2,0-.4,0-.5,0h0Z"/>
        <path class="cls-3" d="m91,63.3c-.3,1.9.1,3.5,2.2,3.7,2.3.3,3-1.4,3.2-3.3.2-1.2.3-2.5.5-3.7.2-1.3,1-2.2,2.4-2,1.3.2,2.1,1.1,2,2.5-.2,2.1-.4,4.2-1,6.1-1.2,4.1-5.7,6-9.6,4.3-3.6-1.5-5.4-6.4-3.7-9.9.5-1.1,1.4-1.5,2.5-1.2,1.7.5,1.6,2,1.5,3.5Z"/>
        <path class="cls-11" d="m130.6,75.4c-2.3-.1-4.8,0-5.8-2.7-.7-1.9,1.1-4.1,4.2-5.4,2.7-1.1,5.6-1.6,8.5-.6,3.1,1.1,3.7,3.7,1.2,5.8-2.3,2-5.1,3-8.1,2.9h0Z"/>
        <path class="cls-11" d="m64.3,74.4c-3.2-.2-6.2-.8-8.5-3.4-1.6-1.8-1.2-3.7.9-4.9,3.4-1.9,10.4-.4,12.8,2.7,1.5,2,1,4.1-1.3,5-1.2.5-2.5.7-3.9.6h0Z"/>
        <path class="cls-19" d="m70.4,95.8c-4.6.2-9.1-.4-13.6-1.1,1.6-.9,3.2,0,4.8.1,3,.2,5.9.3,8.8,1Z"/>
        <path class="cls-23" d="m122.9,169.7c-.9,0-1.8.4-2.6-.5.9.1,1.9-.2,2.6.5Z"/>
        <path class="cls-16" d="m66,166.6l4.7,54.5c.1,1-1.3,1.6-2,.9-5.6-5.3-16-9.8-26.7,2.6"/>
      </g>
      <g id="rock">
        <path class="cls-10" d="m75,137.3c0-8.2,2.5-14.3,8-19.1,12.6-11.2,25.1-22.6,37.7-33.8,2.3-2.1,5.1-3.5,8-4.4,5.6-1.7,11.2-3.2,16.8-4.9,5.2-1.7,10.3-1.9,15.7-.6,14.1,3.3,28.2,6.3,42.3,9.4,5.3,1.2,9.4,4.3,12,9,10.8,19.2,21.5,38.5,32,57.9,4.5,8.3,4.1,16.8-.9,24.9-6.6,10.7-13.3,21.3-19.9,32-3.6,5.9-8.6,9.2-15.4,10.2-8.9,1.2-17.7,2.7-26.6,3.9-4.2.6-8.5-.2-12.7-.5-8.7-.6-17.4-1.5-26.1-2.2-11.7-1-23.4-2-35-2.9-3.8-.3-7.5-.4-10.8-2.4-5.3-3.1-8.5-7.9-10-13.8-4.8-18.9-9.5-37.9-14.3-56.8-.4-2.3-.9-4.6-.8-5.9h0Z"/>
        <path class="cls-27" d="m90.1,118c6.5-5.9,13-11.8,19.6-17.7,4.6-4.1,9.2-8.1,13.8-12.2,3.9-3.4,8.3-4.3,13.2-2.9,11.6,3.1,23.1,6.2,34.7,9.3.4.1.8.3,1.1.5,1.9.7,3.3,2.1,4.6,3.7,4.6,5.8,7.1,12.6,9.1,19.6,4.2,14.2,5.6,28.7,4.9,43.5-.3,6.1-1.7,12-4.9,17.4-4.9,8.1-12.4,11.2-21.4,10.6-10-.7-20-.2-29.9-.4-4.3-.1-8.7-.3-12.9-1.1-6.3-1.1-12.3-2.9-17.5-6.9-5.8-4.5-9.3-10.6-11.8-17.3-4.1-10.8-5.8-22-5.3-33.6.2-4.4.3-8.7,2.7-12.5h0Z"/>
        <path class="cls-9" d="m90.1,118c-1.6,6.4-2.4,12.9-2,19.5.8,11.9,3,23.3,8.9,33.8,5.6,10,14.7,14.5,25.5,16.1,11.8,1.8,23.7.8,35.6,1,4.2.1,8.3.8,12.6.2,6.7-1,11.5-4.5,14.9-10,3.5-5.7,4.6-12,4.9-18.6.5-14.3-1-28.3-5.1-42-2.3-7.7-5-15.1-10.8-21-.7-.7-1.4-1.4-2.2-2,5.2,1.3,10.8,1.7,15.1,5.4,3.3,2.9,5.1,6.6,5.8,10.8,3.4,19.8,6.7,39.7,10.1,59.5.9,5,1.7,10,2.6,15,1.1,6.5-.5,12.2-5,17.1-3.3,3.6-6.5,7.1-9.9,10.6-2.8,2.9-6.2,4.5-10.3,4.2-15.3-1.2-30.5-2.5-45.8-3.7-8.8-.7-17.6-1.5-26.4-2.2-7.3-.5-11.7-4.6-13.7-11.2-2.1-6.7-3.5-13.5-5.2-20.3-3.1-12.5-6.2-25-9.4-37.5-2.4-9.3-.1-16.9,7.5-22.8.9-.8,1.6-1.3,2.3-1.9h0Z"/>
        <path class="cls-20" d="m141.6,81c3.2-1,6.3-2,9.5-2.9,2.2-.6,4.4-.4,6.6.1,14.7,3.3,29.4,6.6,44.2,9.8,4.5,1,7.9,3.5,10.1,7.5,6.4,11.5,12.7,23,19.1,34.5,3.7,6.8,7.4,13.6,11.3,20.2,4.9,8.4,5.1,16.5-.3,24.9-6.5,10-12.8,20.2-19.1,30.4-2.8,4.5-6.4,7.2-11.7,7.9-5.1.7-10.1,1.5-15.9,2.4,3-3.2,5.3-6.1,7.9-8.7,6.8-6.5,8.4-14.5,6.9-23.3-2-12.3-4.1-24.7-6.2-37-1.9-11.1-3.9-22.2-5.7-33.3-.8-5.1-2.1-9.9-5.3-14-2.5-3.2-5.7-5.3-9.6-6.4-13.4-3.6-26.8-7.1-40.2-10.7-.2-.1-.5-.2-.7-.3-.2-.5-1.3-.1-.9-1.1h0Z"/>
        <path class="cls-10" d="m107.4,113.2c.1-4.2,1.9-7.5,5.3-9.9,1.5-1.1,3.2-1.8,5.1-.7,1.8,1.1,2.3,2.8,2.2,4.7-.2,4-1.9,7.4-5.2,9.8-1.6,1.2-3.4,1.9-5.3.8-2-.9-2.2-2.8-2.1-4.7h0Z"/>
        <path class="cls-10" d="m151.9,126.5c.2-3.9,1.6-7.2,4.6-9.6,3.1-2.5,6.3-1.4,7.1,2.5.9,4.2-.6,7.9-3.4,11-1.4,1.6-3.3,2.7-5.6,1.8-2.5-1.1-2.6-3.5-2.7-5.7h0Z"/>
        <path class="cls-11" d="m165,132.4c2.4-.1,4.6.7,6.4,2.2,3.3,2.7,2.8,6.6-1.1,8.4-3.3,1.5-6.6,1.1-9.7-.8-2-1.2-3.2-3-2.7-5.4.5-2.5,2.5-3.6,4.8-4.2.8-.2,1.6-.1,2.3-.2h0Z"/>
        <path class="cls-1" d="m126.1,125.5c-.1,3.2,1.8,5.9,4.7,6.6,3.2.7,6-.6,7.3-3.8.6-1.6,1.4-2.9,3.2-2.1,2,.8,1.5,2.5.8,4-1.9,4.8-7.2,7.4-12.2,6.2-5.1-1.2-8.7-6-8.2-11,.2-1.6.1-3.6,2.6-3.5,2.3.2,1.9,2,1.8,3.6Z"/>
        <path class="cls-11" d="m101.8,126.6c-2.6.1-4.3-.4-5.8-1.5-3-2.2-2.9-5.5.4-7.4,2.4-1.4,7.1-.9,9.2,1,1.3,1.2,2.4,2.6,1.9,4.5s-2.1,2.7-3.8,3.2c-.9.2-1.8.2-1.9.2Z"/>
        <path class="cls-10" d="m119,225.1c-2.2,0-4,1.8-4,4s1.8,4,4,4v-8Zm9.8,3.6l3.3,2.2-3.3-2.2Zm26.9-37.4l-3.7,1.5,3.7-1.5Zm-1.7-.1l-3.3-2.2,3.3,2.2Zm16.7,25.9l-11.3-27.3-7.4,3.1,11.3,27.3,7.4-3.1Zm-20.1-28.2l-25.2,37.5,6.6,4.5,25.2-37.5-6.6-4.5Zm-22.6,36.2h-9v8h9v-8Zm-2.5,1.3c.6-.8,1.5-1.3,2.5-1.3v8c1.7,0,3.2-.8,4.2-2.2l-6.7-4.5Zm33.9-36.6c-1.5-3.7-6.5-4.2-8.8-.9l6.6,4.5c-1.3,2-4.3,1.7-5.3-.5l7.5-3.1Z"/>
        <path class="cls-10" d="m79,222.1c-2.2,0-4,1.8-4,4s1.8,4,4,4v-8Zm9.8,3.6l3.3,2.2-3.3-2.2Zm26.9-37.4l-3.7,1.5,3.7-1.5Zm-1.7-.1l-3.3-2.2,3.3,2.2Zm16.7,25.9l-11.3-27.3-7.4,3.1,11.3,27.3,7.4-3.1Zm-20.1-28.2l-25.2,37.5,6.6,4.5,25.2-37.5-6.6-4.5Zm-22.6,36.2h-9v8h9v-8Zm-2.5,1.3c.6-.8,1.5-1.3,2.5-1.3v8c1.7,0,3.2-.8,4.2-2.2l-6.7-4.5Zm33.9-36.6c-1.5-3.7-6.5-4.2-8.8-.9l6.6,4.5c-1.3,2-4.3,1.7-5.3-.5l7.5-3.1Z"/>
      </g>
    </g>
  </g>
</svg>