<?xml version="1.0" encoding="UTF-8"?>
<svg id="Layer_2" data-name="Layer 2" xmlns="http://www.w3.org/2000/svg" viewBox="0 0 136.64 158.78">
  <defs>
    <style>
      .cls-1 {
        fill: #343434;
      }

      .cls-2 {
        fill: #353534;
      }

      .cls-3 {
        fill: #7c6d33;
      }

      .cls-4 {
        fill: #fffadb;
      }

      .cls-5 {
        fill: #333;
      }

      .cls-6 {
        fill: #ff5fb4;
      }

      .cls-7 {
        fill: #ffe85c;
      }

      .cls-8 {
        fill: #343433;
      }

      .cls-9 {
        fill: #807d67;
      }

      .cls-10 {
        fill: #f4d762;
      }
    </style>
  </defs>
  <g id="Layer_1-2" data-name="Layer 1">
    <g id="paper">
      <path class="cls-5" d="m115.77,75.21c-4.6,25.3-4.9,50.5,2.9,75.3.7,2.2-.1,3.5-1.8,4.6-3.6,2.1-7.7,2.6-11.7,3.1-9.5,1-19,.5-28.4-.1-15.5-1-31-2.7-46.4-4.8-6.1-.8-12.2-1.7-18.3-2.6-6.3-.9-9-3.8-10.2-10.1-2.2-12.1-2.2-24.3-1.3-36.6,1.5-21.3,5.1-42.2,10.9-62.8,2.2-7.7,4.9-15.2,8.2-22.5C24.47,8.41,32.56,2.91,43.77,1.11c10.7-1.6,21.4-1.3,32.1-.2,19.7,2,38.9,6,58,10.9,3,.8,3.4,1.8,2,4.6-8,15.9-14.3,32.4-18.2,49.8-.7,3-1.2,6-1.9,9h0Z"/>
      <path class="cls-4" d="m60.77,23.61c10.5-5.1,21.8-7.5,33.3-8.8,11.3-1.2,22.6-1,33.8.5q3.1.4,1.8,3.2c-7.6,15.7-13.3,32.1-17.1,49.1-.8,2.1-1,4.4-1.4,6.6-2,11.6-3.3,23.2-3.2,34.9.1,13.7,1.5,27.2,5.5,40.3.5,1.8,0,2.4-1.6,2.8-5.1,1.4-10.3,1.6-15.5,1.7-2.6.1-5.2,0-7.7,0-1.2-.4-2.5-.1-3.8-.2-.7-.3-1.5-.2-2.3-.3-.9-.3-1.9-.2-2.8-.2-8-1.7-15.9-3.3-23.9-5-9.4-2-18.8-4.3-28.4-5.6-1.2-.2-2.3-.5-3.4-.7-7.2-1-11.1-5.5-12.8-12.2-.8-3.2-1.2-6.5-1.4-9.9-.4-10-.8-19.9-1-29.9-.1-8.9.5-17.7,1.7-26.5,1.3-8.8,3.8-17.3,6.4-25.8,2.1-6.9,4.5-13.7,8.1-20,1.2-2.2,2.6-4.3,4.8-5.6,2.3-1.1,4.2,0,6.1,1,2.2,1.2,4.1,2.8,5.6,4.8,2.5,3.5,4.7,7.2,6.5,11.2.9,2.1,1.4,2.2,3.1.7,3.1-2.2,6.2-4.3,9.6-6.1h0Z"/>
      <path class="cls-7" d="m10.66,63.61c-.3,7.1-.6,14.2-.9,21.4-.4,9.6.4,19.1.6,28.7.1,5.9.2,11.9,2.1,17.7,1.8,5.5,5.1,9,11,9.9,17.5,2.7,34.8,7.1,52.2,10.4,1.5.3,2.9,1.3,4.6,1,.8.6,1.8,0,2.6.5.7.1,1.4-.1,2,.5-2.7.5-5.4-.1-8-.1-3.4-.1-6.9-.7-10.3-.6-.4,0-.8,0-1.2-.2-5.2-.5-10.3-1-15.5-1.5-4.3-.5-8.7-.9-13-1.5-8.2-1.2-16.3-2.3-24.5-3.5-3.5-.5-5-1.8-5.8-5.2-2.2-10.1-2.5-20.3-2-30.5.7-14.4,2.5-28.6,5.3-42.8.1-1.5.1-2.9.8-4.2Z"/>
      <path class="cls-7" d="m41.07,6.41c20.5-3.8,40.6-.6,60.6,2.7l.1.6c-1.4.1-2.8.3-4.2.4-1.5.1-3,.3-4.5.5-13.4,1.3-26.1,4.9-38.2,10.7-1.1.5-1.8.8-2.5-.7-2.6-5.6-6-10.6-11.3-14.2h0Z"/>
      <path class="cls-7" d="m60.77,23.61c-3.5,2.6-7,5.2-10.5,7.9-1.4,1.1-1.7.1-2.1-.8-2-4.5-4.2-8.8-7.2-12.7-2.8-3.6-6.3-5.7-11-5.9,3.8-3.1,7.6-3,11.2.2,3.7,3.4,6.1,7.6,8.1,12.2,1.3,3,2.2,3.3,5.2,1.9,2-.9,4-2.2,6.3-2.8h0Z"/>
      <path class="cls-3" d="m65.27,152.71c6.5.3,13,.6,19.5.9,1.3.2,2.7-.1,4,.4-7.9.4-15.8,0-23.5-1.3Z"/>
      <path class="cls-3" d="m36.77,149.71c4.4.1,8.7.6,13,1.5-4.4.1-8.8-.5-13-1.5Z"/>
      <path class="cls-5" d="m74.27,119.61c-12.9-1.2-26-2.5-39.2-3.7-5.5-.5-10.9-1.1-16.4-1.6-1.6-.1-3.4-.3-3.2-2.5s1.9-2.1,3.6-1.9c18.2,1.8,36.4,3.5,54.6,5.2.4,0,.8.1,1.2.1,1.6.2,3.2.6,2.9,2.6-.2,1.8-1.7,2.1-3.5,1.8h0Z"/>
      <path class="cls-5" d="m71.66,104.81c-11.9-1.1-23.6-2.2-35.2-3.3-6.2-.6-12.4-1.2-18.6-1.8-.7-.1-1.5-.1-2.2-.3-1.2-.3-1.9-1.1-1.7-2.4.2-1.2.9-2,2.2-1.9,3,.2,6,.4,8.9.7,15.1,1.4,30.3,2.8,45.4,4.3.7.1,1.5.2,2.2.3,1.4.1,2.4.8,2.3,2.4-.1,1.6-1.2,2-2.6,2-.3,0-.6,0-.7,0h0Z"/>
      <path class="cls-5" d="m30.27,79.21c13.5,1.2,27,2.4,40.5,3.6.5,0,1,.1,1.5.2,1.4.2,2.3.9,2.2,2.5-.1,1.7-1.3,2-2.6,1.9-4.9-.4-9.8-.8-14.7-1.2-13-1.2-26-2.4-39-3.5-1.2-.1-2.3-.3-2.8-1.6-.5-1.4.4-2.1,1.4-2.8,4.5,0,9,.6,13.5.9h0Z"/>
      <path class="cls-8" d="m61.57,135.41c-11.1-1.3-22.3-2.6-33.6-4-3-.3-6-.6-8.9-1-1.5-.2-2.6-.8-2.4-2.6.2-1.7,1.4-2.1,2.9-1.9,14.2,1.7,28.4,3.4,42.6,5.1,1.7.2,2.8.8,2.5,2.6-.1,1.9-1.5,2-3.1,1.8Z"/>
      <path class="cls-8" d="m78.47,37.21c3.3,1.7,6.1,3.1,8.9,4.5.9.5,1.8.9,2.6,1.4,1.2.7,1.5,1.8.9,3-.6,1.3-1.8,1.5-3,.9-5.1-2.5-10.3-5.1-15.4-7.8-1.8-1-1.8-2.9.1-3.9,4.4-2.5,8.9-4.9,13.4-7.3,1.2-.6,2.5-.6,3.2.8.6,1.3.1,2.4-1.2,3.1-2.9,1.6-6,3.3-9.5,5.3h0Z"/>
      <path class="cls-1" d="m26.97,46.21c-1.1,0-2-.4-2.3-1.5-.3-1.3.3-2.3,1.5-2.8,3.1-1.2,6.2-2.5,9.3-3.5,2.1-.7,1.9-1.3.3-2.4-1.5-1.1-3-2.4-4.4-3.6-1.1-.9-1.4-2.1-.4-3.3.9-1.1,2.1-1,3.1-.2,3.2,2.5,6.4,5.1,9.5,7.7,1.3,1.2,1.1,3-.5,3.7-5.2,2.1-10.4,4-15.6,5.9-.2,0-.4,0-.5,0h0Z"/>
      <path class="cls-2" d="m50.87,46.71c-.3,1.9.1,3.5,2.2,3.7,2.3.3,3-1.4,3.2-3.3.2-1.2.3-2.5.5-3.7.2-1.3,1-2.2,2.4-2,1.3.2,2.1,1.1,2,2.5-.2,2.1-.4,4.2-1,6.1-1.2,4.1-5.7,6-9.6,4.3-3.6-1.5-5.4-6.4-3.7-9.9.5-1.1,1.4-1.5,2.5-1.2,1.7.5,1.6,2,1.5,3.5Z"/>
      <path class="cls-6" d="m90.47,58.81c-2.3-.1-4.8,0-5.8-2.7-.7-1.9,1.1-4.1,4.2-5.4,2.7-1.1,5.6-1.6,8.5-.6,3.1,1.1,3.7,3.7,1.2,5.8-2.3,2-5.1,3-8.1,2.9h0Z"/>
      <path class="cls-6" d="m24.16,57.81c-3.2-.2-6.2-.8-8.5-3.4-1.6-1.8-1.2-3.7.9-4.9,3.4-1.9,10.4-.4,12.8,2.7,1.5,2,1,4.1-1.3,5-1.2.5-2.5.7-3.9.6h0Z"/>
      <path class="cls-9" d="m30.27,79.21c-4.6.2-9.1-.4-13.6-1.1,1.6-.9,3.2,0,4.8.1,3,.2,5.9.3,8.8,1Z"/>
      <path class="cls-10" d="m82.77,153.11c-.9,0-1.8.4-2.6-.5.9.1,1.9-.2,2.6.5Z"/>
    </g>
  </g>
</svg>