<?xml version="1.0" encoding="UTF-8"?>
<svg id="Layer_2" data-name="Layer 2" xmlns="http://www.w3.org/2000/svg" viewBox="0 0 175.64 148.36">
  <defs>
    <style>
      .cls-1 {
        fill: #343434;
      }

      .cls-2 {
        fill: #ff8486;
      }

      .cls-3 {
        fill: #333;
      }

      .cls-4 {
        fill: #ff5fb4;
      }

      .cls-5 {
        fill: #ff474a;
      }

      .cls-6 {
        fill: #ffd6d7;
      }
    </style>
  </defs>
  <g id="Layer_1-2" data-name="Layer 1">
    <g id="rock">
      <path class="cls-3" d="m.01,63.64C.01,55.44,2.51,49.34,8.01,44.54c12.6-11.2,25.1-22.6,37.7-33.8,2.3-2.1,5.1-3.5,8-4.4,5.6-1.7,11.2-3.2,16.8-4.9,5.2-1.7,10.3-1.9,15.7-.6,14.1,3.3,28.2,6.3,42.3,9.4,5.3,1.2,9.4,4.3,12,9,10.8,19.2,21.5,38.5,32,57.9,4.5,8.3,4.1,16.8-.9,24.9-6.6,10.7-13.3,21.3-19.9,32-3.6,5.9-8.6,9.2-15.4,10.2-8.9,1.2-17.7,2.7-26.6,3.9-4.2.6-8.5-.2-12.7-.5-8.7-.6-17.4-1.5-26.1-2.2-11.7-1-23.4-2-35-2.9-3.8-.3-7.5-.4-10.8-2.4-5.3-3.1-8.5-7.9-10-13.8-4.8-18.9-9.5-37.9-14.3-56.8-.4-2.3-.9-4.6-.8-5.9H.01Z"/>
      <path class="cls-6" d="m15.11,44.34c6.5-5.9,13-11.8,19.6-17.7,4.6-4.1,9.2-8.1,13.8-12.2,3.9-3.4,8.3-4.3,13.2-2.9,11.6,3.1,23.1,6.2,34.7,9.3.4.1.8.3,1.1.5,1.9.7,3.3,2.1,4.6,3.7,4.6,5.8,7.1,12.6,9.1,19.6,4.2,14.2,5.6,28.7,4.9,43.5-.3,6.1-1.7,12-4.9,17.4-4.9,8.1-12.4,11.2-21.4,10.6-10-.7-20-.2-29.9-.4-4.3-.1-8.7-.3-12.9-1.1-6.3-1.1-12.3-2.9-17.5-6.9-5.8-4.5-9.3-10.6-11.8-17.3-4.1-10.8-5.8-22-5.3-33.6.2-4.4.3-8.7,2.7-12.5h0Z"/>
      <path class="cls-2" d="m15.11,44.34c-1.6,6.4-2.4,12.9-2,19.5.8,11.9,3,23.3,8.9,33.8,5.6,10,14.7,14.5,25.5,16.1,11.8,1.8,23.7.8,35.6,1,4.2.1,8.3.8,12.6.2,6.7-1,11.5-4.5,14.9-10,3.5-5.7,4.6-12,4.9-18.6.5-14.3-1-28.3-5.1-42-2.3-7.7-5-15.1-10.8-21-.7-.7-1.4-1.4-2.2-2,5.2,1.3,10.8,1.7,15.1,5.4,3.3,2.9,5.1,6.6,5.8,10.8,3.4,19.8,6.7,39.7,10.1,59.5.9,5,1.7,10,2.6,15,1.1,6.5-.5,12.2-5,17.1-3.3,3.6-6.5,7.1-9.9,10.6-2.8,2.9-6.2,4.5-10.3,4.2-15.3-1.2-30.5-2.5-45.8-3.7-8.8-.7-17.6-1.5-26.4-2.2-7.3-.5-11.7-4.6-13.7-11.2-2.1-6.7-3.5-13.5-5.2-20.3-3.1-12.5-6.2-25-9.4-37.5-2.4-9.3-.1-16.9,7.5-22.8.9-.8,1.6-1.3,2.3-1.9h0Z"/>
      <path class="cls-5" d="m66.61,7.34c3.2-1,6.3-2,9.5-2.9,2.2-.6,4.4-.4,6.6.1,14.7,3.3,29.4,6.6,44.2,9.8,4.5,1,7.9,3.5,10.1,7.5,6.4,11.5,12.7,23,19.1,34.5,3.7,6.8,7.4,13.6,11.3,20.2,4.9,8.4,5.1,16.5-.3,24.9-6.5,10-12.8,20.2-19.1,30.4-2.8,4.5-6.4,7.2-11.7,7.9-5.1.7-10.1,1.5-15.9,2.4,3-3.2,5.3-6.1,7.9-8.7,6.8-6.5,8.4-14.5,6.9-23.3-2-12.3-4.1-24.7-6.2-37-1.9-11.1-3.9-22.2-5.7-33.3-.8-5.1-2.1-9.9-5.3-14-2.5-3.2-5.7-5.3-9.6-6.4-13.4-3.6-26.8-7.1-40.2-10.7-.2-.1-.5-.2-.7-.3-.2-.5-1.3-.1-.9-1.1h0Z"/>
      <path class="cls-3" d="m32.41,39.54c.1-4.2,1.9-7.5,5.3-9.9,1.5-1.1,3.2-1.8,5.1-.7,1.8,1.1,2.3,2.8,2.2,4.7-.2,4-1.9,7.4-5.2,9.8-1.6,1.2-3.4,1.9-5.3.8-2-.9-2.2-2.8-2.1-4.7h0Z"/>
      <path class="cls-3" d="m76.91,52.84c.2-3.9,1.6-7.2,4.6-9.6,3.1-2.5,6.3-1.4,7.1,2.5.9,4.2-.6,7.9-3.4,11-1.4,1.6-3.3,2.7-5.6,1.8-2.5-1.1-2.6-3.5-2.7-5.7h0Z"/>
      <path class="cls-4" d="m90.01,58.74c2.4-.1,4.6.7,6.4,2.2,3.3,2.7,2.8,6.6-1.1,8.4-3.3,1.5-6.6,1.1-9.7-.8-2-1.2-3.2-3-2.7-5.4.5-2.5,2.5-3.6,4.8-4.2.8-.2,1.6-.1,2.3-.2h0Z"/>
      <path class="cls-1" d="m51.11,51.84c-.1,3.2,1.8,5.9,4.7,6.6,3.2.7,6-.6,7.3-3.8.6-1.6,1.4-2.9,3.2-2.1,2,.8,1.5,2.5.8,4-1.9,4.8-7.2,7.4-12.2,6.2-5.1-1.2-8.7-6-8.2-11,.2-1.6.1-3.6,2.6-3.5,2.3.2,1.9,2,1.8,3.6Z"/>
      <path class="cls-4" d="m26.81,52.94c-2.6.1-4.3-.4-5.8-1.5-3-2.2-2.9-5.5.4-7.4,2.4-1.4,7.1-.9,9.2,1,1.3,1.2,2.4,2.6,1.9,4.5s-2.1,2.7-3.8,3.2c-.9.2-1.8.2-1.9.2Z"/>
    </g>
  </g>
</svg>