<?xml version="1.0" encoding="UTF-8"?>
<svg id="Layer_2" data-name="Layer 2" xmlns="http://www.w3.org/2000/svg" viewBox="0 0 125.51 167.15">
  <defs>
    <style>
      .cls-1 {
        fill: #343434;
      }

      .cls-2 {
        fill: #6eff9b;
      }

      .cls-3 {
        fill: #363636;
      }

      .cls-4 {
        fill: #39646d;
      }

      .cls-5 {
        fill: #3b666f;
      }

      .cls-6 {
        fill: #333;
      }

      .cls-7 {
        fill: #ff5fb4;
      }

      .cls-8 {
        fill: #52e37e;
      }

      .cls-9 {
        fill: #4ca0b4;
      }

      .cls-10 {
        fill: #dbffe6;
      }

      .cls-11 {
        fill: #edfff2;
      }

      .cls-12 {
        fill: #2fd57b;
      }

      .cls-13 {
        fill: #5cc4da;
      }
    </style>
  </defs>
  <g id="Layer_1-2" data-name="Layer 1">
    <g id="scissors">
      <path class="cls-6" d="m69.48,134.8c.3,1.7.6,3.4.9,5.2,1.4,9.9-2.9,16.9-10.9,22.1-13.2,8.5-35.4,7.2-47.4-11.1-5.8-8.9-8.7-18.8-9.7-29.3-.9-10.3,0-20.4,3.6-30.2.6-1.6,1.1-3.4,2.1-4.8,2-2.7,1.5-5.1.2-8C1.28,63.5-.82,47.5.28,31,.98,21.6,2.58,12.3,5.38,3.3,6.48-.3,7.08-.6,10.58.7c26.1,9.5,44.2,27.4,55.2,52.7.7,1.7,1.6,2.3,3.4,2.6,9.5,1.6,17.8,6,25.3,11.9,13.2,10.2,23.3,22.8,28.6,38.8,3.6,11,3.6,21.8-2.7,32-4,6.5-9.6,11.3-16.7,14.1-9.1,3.6-16.8.7-23.6-5.5-3.8-3.5-7-7.6-9.8-12-.2-.4-.5-.6-.8-.5h0Z"/>
      <path class="cls-4" d="m69.48,134.8c-.4-.3-.8-1-.3-1.1.9-.1,1.2.7,1.3,1.5-.4,0-.7-.2-1-.4h0Z"/>
      <path class="cls-8" d="m44.78,83.4c2.7,10.6,8.2,19.9,12.6,29.7,4.3,9.5,7.8,19.5,8.8,30,.4,4.1-1.2,7.6-3.9,10.7-11.5,12.8-32.9,11.6-44.2-2.4-5.9-7.3-9.1-15.8-10.6-25-2.1-12.8-1.2-25.4,4.3-37.4.9-2,2.1-2.6,4.2-2.5,6.9.4,13.8.4,20.7-.7,2.7-.3,5.4-1.2,8.1-2.4h0Z"/>
      <path class="cls-12" d="m104.48,83.8c.3.3.6.7,1,1.1.5.7,1,1.3,1.6,1.9,6.1,7.3,10.4,15.6,12.8,24.9.2.7.4,1.4.5,2.2.9,4.5,1.1,9,0,13.5-2.4,9.6-8.3,16.4-16.9,20.8-6,3.1-11.8,2.2-17.2-1.6-5.6-4.1-9.8-9.5-13.3-15.4-7.5-12.6-14.9-25.2-20.6-38.7-1.6-3.9-2.8-7.8-3.7-11.9-.2-.8-.3-1.6.2-2.4,4.1-5.9,8.4-11.6,14-16.1,2.1-1.7,4.2-2,6.8-1.4,11.3,2.5,20.5,8.9,28.8,16.6,1.4,1.3,2.9,2.5,3.9,4.2.3.3.3.7,0,1-1.4.2-2.1-.9-2.8-1.7-4.7-4.7-10.1-8.5-16.1-11.3-4.1-1.9-8.5-2.8-13.1-3.1-.8-.1-1.7.2-2.4.4-2.4.8-4.3,2.9-4.2,4.8.1,1.7,2,3.4,4.6,4,3,.7,6.1.9,9.1,1.8,10.2,2.9,18.9,8.3,25.7,16.4,5.3,6.2,7.8,13.7,8.8,21.7.2,1.4.4,2.8.7,4.2.2.9.1,2.3,1.5,2.2,1.1-.1,1-1.4,1-2.3.1-3.8,0-7.5-.8-11.2-1.9-8.7-5.6-16.5-11.3-23.4-.5-.6-1.2-1.2-1-2.2,1.6-1.1,1.7.5,2.4,1h0Z"/>
      <path class="cls-10" d="m8.68,10.4c1.9,5.6,3.8,11.3,5.6,16.9,3.5,10.7,7.2,21.3,10.5,32,1.3,4.3,3.6,7.7,6.8,10.8,2.8,2.7,5.4,5.6,8.2,8.4,1.2,1.2,1.1,1.9-.6,2.4-3.1.9-6.2,1.2-9.3,1.4-4.3.2-8.7,0-13,.1-1.5,0-2.2-.6-2.9-1.8-7.8-15.2-10.3-31.5-9.2-48.4.4-6.4,1.2-12.7,2.7-19,.2-.9.4-1.8.7-2.6.1-.2.3-.2.5-.2h0Z"/>
      <path class="cls-11" d="m36.38,68.4c-5.4-3.7-7-9.5-8.9-15.3-4.7-14.6-9.6-29.2-14.4-43.8-.3-.9-.6-1.7-1-3.3,14.1,5.8,25.7,13.9,35,25.3,4.7,7.3,5.1,15.2,3,23.4-1.4,5.3-4.1,9.8-8.9,12.7-1.6.8-3,1.8-4.8,1h0Z"/>
      <path class="cls-10" d="m36.38,68.4c5.8-1.1,9.4-4.9,11.5-9.9,3.8-9,3.4-17.9-.9-26.7-.1-.1,0-.3,0-.5,5.7,6.3,10,13.4,13.5,21.1q1.9,4.2-1.5,7c-5.3,4.4-9.3,9.9-13.2,15.5-1.2,1.7-1.9,1.7-3.1.2-2.1-2.3-4.2-4.5-6.3-6.7h0Z"/>
      <path class="cls-5" d="m120.38,127.3c.5-4.5.5-9,0-13.5,1.5,4.5,1.5,9,0,13.5Z"/>
      <path class="cls-13" d="m102.38,82.3v-1c.9.7,1.8,1.3,2,2.5-.6-.5-1.3-1-2-1.5h0Z"/>
      <path class="cls-13" d="m106.98,86.8c-.9-.3-1.5-.9-1.6-1.9.9.3,1.3,1.1,1.6,1.9Z"/>
      <path class="cls-6" d="m40.38,148.4c-6.9-.1-11.4-3.5-15.3-8.2-9.1-11.2-11-30.2-4.2-42.9,2.3-4.3,5.5-7.5,10.8-7.6,3.4-.1,5.9,1.4,7.6,4.3,5.2,9.1,9.1,18.8,13,28.6,1.5,3.7,2.7,7.5,3.8,11.4.7,2.7.3,5.2-1.7,7.4-3.8,4.3-8.5,6.9-14,7h0Z"/>
      <path class="cls-6" d="m79.38,81.8c14.2,4.9,24.1,14.2,28.2,29,1.7,6.3,1.8,12.6-2.8,18-4.5,5.3-10.4,7.2-17.2,6.4-1.7-.2-2.8-1.3-3.8-2.6-4.6-6.1-8-12.9-11.5-19.6-3.1-6-6.1-12.1-8.4-18.4-2.3-6.2-.5-10.2,5.5-12.9,3.4-1.1,6.7-1,10,.1h0Z"/>
      <path class="cls-2" d="m102.38,82.3c2.2,3.4,4.9,6.4,6.8,10,4.7,8.7,7.4,17.9,6.6,27.9-.1,1.1-.4,2.3-1.7,2.5-1.5.2-1.7-1.2-1.9-2.2-.5-2.5-1-5-1.3-7.6-2.2-14.2-10.4-23.9-22.6-30.7-5.9-3.3-12.3-5.3-19.1-6-3.8-.4-6.8-3.1-6.3-5.5.6-3.3,4.6-5.4,8.3-5.1,12,.9,21.2,7.1,29.4,15.2.7.6,1.2,1.1,1.8,1.5h0Z"/>
      <path class="cls-9" d="m79.38,81.8c-3.3-.6-6.7-.8-10-.1,3.4-1.5,6.7-1.4,10,.1Z"/>
      <path class="cls-1" d="m31.48,45.4c-3.1,0-4.9-1.6-6.1-4.8-1-2.6.2-4.3,2.2-5.8.2-.1.4-.3.6-.4q3.5-2.4,5.8,1.2c.8,1.2,1.5,2.4,2.2,3.6,1.7,2.8,1.3,4.1-1.6,5.5-1,.4-2.1.7-3.1.7h0Z"/>
      <path class="cls-3" d="m31.48,22.3c1.8,0,3.3.2,3.7,1.8s-.9,2.6-2.2,3.2c-1.9.9-3.8,1.2-5.6,0-.9-.6-1-1.5-.5-2.4,1.1-1.9,2.9-2.5,4.6-2.6h0Z"/>
      <path class="cls-3" d="m41.28,45.9c0-2.9,2.4-5.7,4.6-5.7,1.7.1,2.1,1.1,2,2.5-.1,2.5-2.6,5.5-4.7,5.4-1.6,0-1.9-1.2-1.9-2.2Z"/>
      <path class="cls-7" d="m45.08,56.3c-2,0-4.6-2.4-4.5-4.2.1-1.4.7-2.6,2.4-2.7,1.9-.1,4.4,2.6,4.3,4.5-.1,1.5-1.1,2.2-2.2,2.4h0Z"/>
      <path class="cls-7" d="m20.38,18.4c-.1-1.3.1-2.7,2-2.9,1.6-.2,3.1,1.8,3.1,3.8,0,1.5-.2,2.9-2.1,3-1.9.2-3-1.2-3-3.9h0Z"/>
      <path class="cls-8" d="m21.38,113.6c-.1-3.9,1-9.1,3.4-14,.9-1.8,2.1-3.4,3.8-4.5,3-1.9,5.6-1.3,7.3,1.8,3.4,6.2,6.3,12.6,9,19.2,2.5,6.1,5,12.1,6.8,18.5.5,1.9,0,3.2-1.2,4.5-6.3,6.7-15.1,6.4-21-.7-5.7-6.8-8.1-14.6-8.1-24.8h0Z"/>
      <path class="cls-8" d="m89.78,131c-1.3.2-2.3-.7-3.1-2-5.7-8.5-10.3-17.7-14.7-26.9-1.5-3.2-2.9-6.5-4.2-9.9-1-2.7-.2-4.4,2.3-5.8,2.4-1.3,4.9-1.1,7.5-.5,13,3.1,24.8,16.4,26.3,29.7,1.3,10.8-6.6,15.1-14.1,15.4h0Z"/>
    </g>
  </g>
</svg>